<svg width="56" height="56" viewBox="0 0 56 56" fill="none" xmlns="http://www.w3.org/2000/svg">
<rect x="1" y="1" width="54" height="54" rx="19" fill="white"/>
<rect x="1" y="1" width="54" height="54" rx="19" stroke="#027BCE" stroke-width="2"/>
<path d="M30.6855 34.0351V37.0526M24.6504 34.0351V37.0526M30.6855 18.9474V21.9649M24.6504 18.9474V21.9649" stroke="#027BCE" stroke-width="1.5" stroke-linejoin="round"/>
<path d="M32.9475 18.9474H41.2458V22.7193M22.3861 37.0526H14.0879V33.2807M33.7019 23.4737C33.7019 23.0735 33.543 22.6898 33.26 22.4068C32.9771 22.1239 32.5933 21.9649 32.1932 21.9649H23.1405C22.7404 21.9649 22.3566 22.1239 22.0737 22.4068C21.7907 22.6898 21.6318 23.0735 21.6318 23.4737M21.6318 32.5263C21.6318 32.9265 21.7907 33.3102 22.0737 33.5932C22.3566 33.8761 22.7404 34.0351 23.1405 34.0351H32.1932C32.5933 34.0351 32.9771 33.8761 33.26 33.5932C33.543 33.3102 33.7019 32.9265 33.7019 32.5263M27.6668 34.0351V37.0526M27.6668 18.9474V21.9649" stroke="#027BCE" stroke-width="1.5" stroke-linejoin="round"/>
<path d="M21.6336 28H16.3529C16.1536 28.0042 15.9555 27.9681 15.7705 27.8937C15.5856 27.8194 15.4176 27.7084 15.2766 27.5675C15.1356 27.4265 15.0247 27.2585 14.9503 27.0736C14.876 26.8886 14.8399 26.6905 14.8441 26.4912V23.4737" stroke="#027BCE" stroke-width="1.5" stroke-linejoin="round"/>
<path d="M21.6308 31.0175H18.6133M21.6308 24.9824H18.6133M36.7185 31.0175H33.701M36.7185 24.9824H33.701M24.6484 31.0175V26.4911C24.6462 26.3915 24.6642 26.2924 24.7014 26.1999C24.7385 26.1074 24.794 26.0234 24.8645 25.9529C24.935 25.8824 25.019 25.8269 25.1115 25.7898C25.204 25.7526 25.3031 25.7346 25.4028 25.7368H26.9115C27.0112 25.7346 27.1103 25.7526 27.2028 25.7898C27.2953 25.8269 27.3793 25.8824 27.4498 25.9529C27.5203 26.0234 27.5757 26.1074 27.6129 26.1999C27.65 26.2924 27.6681 26.3915 27.6659 26.4911V31.0175M30.6835 24.9824V31.0175M24.6484 28.7543H27.6659" stroke="#027BCE" stroke-width="1.5" stroke-linejoin="round"/>
<path d="M33.7031 28.0001H38.9838C39.1831 27.9958 39.3812 28.032 39.5662 28.1063C39.7511 28.1806 39.9191 28.2916 40.0601 28.4326C40.201 28.5735 40.312 28.7415 40.3863 28.9265C40.4607 29.1115 40.4968 29.3095 40.4926 29.5088V32.5264" stroke="#027BCE" stroke-width="1.5" stroke-linejoin="round"/>
<path d="M14.8428 23.4736C15.676 23.4736 16.3515 22.7981 16.3515 21.9648C16.3515 21.1315 15.676 20.456 14.8428 20.456C14.0095 20.456 13.334 21.1315 13.334 21.9648C13.334 22.7981 14.0095 23.4736 14.8428 23.4736Z" stroke="#027BCE" stroke-width="1.5" stroke-linejoin="round"/>
<path d="M40.4912 35.5439C41.3245 35.5439 42 34.8684 42 34.0351C42 33.2018 41.3245 32.5263 40.4912 32.5263C39.6579 32.5263 38.9824 33.2018 38.9824 34.0351C38.9824 34.8684 39.6579 35.5439 40.4912 35.5439Z" stroke="#027BCE" stroke-width="1.5" stroke-linejoin="round"/>
<path d="M14.0879 30.2632V31.772M41.2458 24.2282V25.7369" stroke="#027BCE" stroke-width="1.5" stroke-linejoin="round"/>
</svg>
