<svg width="56" height="57" viewBox="0 0 56 57" fill="none" xmlns="http://www.w3.org/2000/svg">
<rect x="1" y="1.41998" width="54" height="54" rx="19" fill="white"/>
<rect x="1" y="1.41998" width="54" height="54" rx="19" stroke="#027BCE" stroke-width="2"/>
<path fill-rule="evenodd" clip-rule="evenodd" d="M39.1429 27.5627V22.4198C39.1429 21.2832 38.6911 20.1929 37.8876 19.3894C37.084 18.5858 35.9937 18.1341 34.8571 18.1341C31.0522 18.1341 24.9476 18.1341 21.1427 18.1341C20.0061 18.1341 18.9158 18.5858 18.1122 19.3894C17.3086 20.1929 16.8569 21.2832 16.8569 22.4198C16.8569 26.2247 16.8569 32.3293 16.8569 36.1342C16.8569 37.2708 17.3086 38.3611 18.1122 39.1647C18.9158 39.9683 20.0061 40.42 21.1427 40.42C24.9476 40.42 31.0522 40.42 34.8571 40.42C35.9937 40.42 37.084 39.9683 37.8876 39.1647C38.6911 38.3611 39.1429 37.2708 39.1429 36.1342C39.1429 35.8599 39.1429 31.2879 39.1429 30.9913C39.1429 30.5182 38.7588 30.1342 38.2857 30.1342C37.8126 30.1342 37.4286 30.5182 37.4286 30.9913V36.1342C37.4286 36.8161 37.1577 37.4701 36.6755 37.9527C36.193 38.4348 35.539 38.7057 34.8571 38.7057C31.0522 38.7057 24.9476 38.7057 21.1427 38.7057C20.4608 38.7057 19.8068 38.4348 19.3242 37.9527C18.8421 37.4701 18.5712 36.8161 18.5712 36.1342C18.5712 32.3293 18.5712 26.2247 18.5712 22.4198C18.5712 21.738 18.8421 21.0839 19.3242 20.6014C19.8068 20.1192 20.4608 19.8484 21.1427 19.8484C24.9476 19.8484 31.0522 19.8484 34.8571 19.8484C35.539 19.8484 36.193 20.1192 36.6755 20.6014C37.1577 21.0839 37.4286 21.738 37.4286 22.4198C37.4286 25.2154 37.4286 24.1088 37.4286 27.5627C37.4286 28.0359 37.8126 28.4199 38.2857 28.4199C38.7588 28.4199 39.1429 28.0359 39.1429 27.5627Z" fill="#027BCE"/>
<path fill-rule="evenodd" clip-rule="evenodd" d="M39.1429 22.4193C39.1429 21.2826 38.6911 20.1926 37.8876 19.3889C37.084 18.5851 35.9937 18.1336 34.8571 18.1336C31.0522 18.1336 24.9476 18.1336 21.1427 18.1336C20.0061 18.1336 18.9158 18.5851 18.1122 19.3889C17.3086 20.1926 16.8569 21.2826 16.8569 22.4193C16.8569 24.1336 16.8569 25.8479 16.8569 25.8479C16.8569 26.3213 17.2405 26.705 17.7141 26.705H38.2857C38.7593 26.705 39.1429 26.3213 39.1429 25.8479V22.4193ZM37.4286 24.9907V22.4193C37.4286 21.7373 37.1577 21.0833 36.6755 20.601C36.193 20.1187 35.539 19.8479 34.8571 19.8479C31.0522 19.8479 24.9476 19.8479 21.1427 19.8479C20.4608 19.8479 19.8068 20.1187 19.3242 20.601C18.8421 21.0833 18.5712 21.7373 18.5712 22.4193V24.9907H37.4286Z" fill="#027BCE"/>
<path fill-rule="evenodd" clip-rule="evenodd" d="M22.8578 23.277H33.1436C33.6168 23.277 34.0009 22.893 34.0009 22.4198C34.0009 21.9467 33.6168 21.5627 33.1436 21.5627H22.8578C22.3846 21.5627 22.0005 21.9467 22.0005 22.4198C22.0005 22.893 22.3846 23.277 22.8578 23.277Z" fill="#027BCE"/>
<path fill-rule="evenodd" clip-rule="evenodd" d="M23.7143 19.8484V17.2769C23.7143 16.8038 23.3303 16.42 22.8572 16.42C22.384 16.42 22 16.8038 22 17.2769V19.8484C22 20.3215 22.384 20.7053 22.8572 20.7053C23.3303 20.7053 23.7143 20.3215 23.7143 19.8484Z" fill="#027BCE"/>
<path fill-rule="evenodd" clip-rule="evenodd" d="M33.9999 19.8484V17.2769C33.9999 16.8038 33.6159 16.42 33.1428 16.42C32.6696 16.42 32.2856 16.8038 32.2856 17.2769V19.8484C32.2856 20.3215 32.6696 20.7053 33.1428 20.7053C33.6159 20.7053 33.9999 20.3215 33.9999 19.8484Z" fill="#027BCE"/>
<path fill-rule="evenodd" clip-rule="evenodd" d="M22.857 33.2079L25.6796 30.3853C26.0139 30.0506 26.5573 30.0506 26.8916 30.3853C27.2263 30.7196 27.2263 31.263 26.8916 31.5973L23.463 35.0259C23.1283 35.3606 22.5857 35.3606 22.251 35.0259L20.5367 33.3116C20.202 32.9773 20.202 32.4339 20.5367 32.0996C20.871 31.7649 21.4144 31.7649 21.7487 32.0996L22.857 33.2079Z" fill="#027BCE"/>
<path fill-rule="evenodd" clip-rule="evenodd" d="M29.7141 33.5628H34.857C35.3301 33.5628 35.7141 33.1788 35.7141 32.7056C35.7141 32.2325 35.3301 31.8485 34.857 31.8485H29.7141C29.2409 31.8485 28.8569 32.2325 28.8569 32.7056C28.8569 33.1788 29.2409 33.5628 29.7141 33.5628Z" fill="#027BCE"/>
</svg>
