<svg width="57" height="56" viewBox="0 0 57 56" fill="none" xmlns="http://www.w3.org/2000/svg">
<rect x="1.33398" y="1" width="54" height="54" rx="19" fill="white"/>
<rect x="1.33398" y="1" width="54" height="54" rx="19" stroke="#027BCE" stroke-width="2"/>
<path d="M21.3008 25.1564V31.0109M25.9844 25.1564V31.0109M21.3008 28.08H25.9844M29.8971 24.9891H33.0317C33.6508 24.9891 34.2447 25.2351 34.6825 25.6729C35.1203 26.1107 35.3662 26.7045 35.3662 27.3236V28.6764C35.3662 28.9829 35.3059 29.2865 35.1885 29.5698C35.0712 29.853 34.8992 30.1104 34.6825 30.3271C34.4657 30.5439 34.2083 30.7159 33.9251 30.8332C33.6418 30.9505 33.3383 31.0109 33.0317 31.0109H29.8971V24.9891Z" stroke="#027BCE" stroke-width="2" stroke-linecap="round" stroke-linejoin="round"/>
<path d="M35.9549 17.8036H20.7113C18.7954 17.8036 17.2422 19.3568 17.2422 21.2727V34.7273C17.2422 36.6432 18.7954 38.1964 20.7113 38.1964H35.9549C37.8708 38.1964 39.424 36.6432 39.424 34.7273V21.2727C39.424 19.3568 37.8708 17.8036 35.9549 17.8036Z" stroke="#027BCE" stroke-width="2" stroke-linecap="round" stroke-linejoin="round"/>
</svg>
