<svg width="56" height="57" viewBox="0 0 56 57" fill="none" xmlns="http://www.w3.org/2000/svg">
<rect x="1" y="1.41998" width="54" height="54" rx="19" fill="white"/>
<rect x="1" y="1.41998" width="54" height="54" rx="19" stroke="#027BCE" stroke-width="2"/>
<path d="M34.6231 32.7129L25.1199 23.2097L23.351 21.4368L19.4335 17.5232L17.7921 19.1645L21.5896 22.9619C21.263 23.3949 21.0045 23.8753 20.8231 24.3865C20.741 24.6111 20.6751 24.8414 20.6258 25.0755C19.2943 25.2392 18.0753 25.9047 17.2176 26.9362C16.3598 27.9677 15.9279 29.2876 16.0098 30.6266C16.0918 31.9657 16.6815 33.2231 17.6586 34.1423C18.6357 35.0615 19.9267 35.5734 21.2682 35.5735H32.2967C32.47 35.5741 32.6431 35.565 32.8154 35.5464C33.2143 35.5205 33.6104 35.4622 33.9999 35.3723L37.9444 39.3168L39.5896 37.6755L36.3302 34.4161L34.6231 32.7129ZM21.2682 33.251C20.487 33.251 19.7377 32.9406 19.1852 32.3882C18.6328 31.8357 18.3224 31.0864 18.3224 30.3052C18.3224 29.5239 18.6328 28.7746 19.1852 28.2222C19.7377 27.6697 20.487 27.3594 21.2682 27.3594H22.8321V26.1981C22.831 25.6475 22.9795 25.1069 23.2617 24.6342L31.8786 33.251L21.2682 33.251ZM39.9999 27.8712C40.0031 26.3239 39.5408 24.8115 38.6731 23.5304C37.8055 22.2493 36.5725 21.2588 35.1346 20.6876C33.6966 20.1164 32.1201 19.9909 30.6098 20.3274C29.0996 20.6639 27.7255 21.4469 26.6661 22.5746L28.3071 24.2157C28.799 23.6789 29.3945 23.2473 30.0576 22.9468C30.7208 22.6463 31.4379 22.4832 32.1658 22.4673C32.8937 22.4514 33.6172 22.5831 34.2928 22.8544C34.9685 23.1256 35.5822 23.5309 36.097 24.0457C36.6118 24.5605 37.0171 25.1742 37.2883 25.8498C37.5596 26.5255 37.6912 27.249 37.6753 27.9769C37.6595 28.7048 37.4964 29.4219 37.1959 30.0851C36.8954 30.7482 36.4638 31.3437 35.927 31.8355L37.568 33.4766C38.3342 32.7574 38.9451 31.8892 39.3634 30.9252C39.7816 29.9613 39.9982 28.9219 39.9999 27.8712Z" fill="#027BCE"/>
</svg>
