<svg width="57" height="56" viewBox="0 0 57 56" fill="none" xmlns="http://www.w3.org/2000/svg">
<rect x="1.66602" y="1" width="54" height="54" rx="19" fill="white"/>
<rect x="1.66602" y="1" width="54" height="54" rx="19" stroke="#027BCE" stroke-width="2"/>
<path d="M17.9199 33.4667C17.3666 33.4667 16.9199 33.9133 16.9199 34.4667V41.5733C16.9199 42.7267 17.8599 43.6667 19.0133 43.6667H38.3266C39.4799 43.6667 40.4199 42.7267 40.4199 41.5733V14.4267C40.4199 13.2733 39.4799 12.3333 38.3266 12.3333H20.6466C19.4933 12.3333 18.5533 13.2733 18.5533 14.4267V22.94L17.0999 24.9533C16.9799 25.1267 16.9199 25.3333 16.9199 25.54V28.64C16.9199 29.1933 17.3666 29.64 17.9199 29.64H18.5599V33.4733H17.9199V33.4667ZM18.9199 35.4667H19.5599C20.1133 35.4667 20.5599 35.02 20.5599 34.4667V28.6333C20.5599 28.08 20.1133 27.6333 19.5599 27.6333H18.9199V25.86L20.3733 23.8467C20.4933 23.68 20.5599 23.4733 20.5599 23.26V14.4267C20.5599 14.3733 20.5999 14.3333 20.6533 14.3333H38.3266C38.3799 14.3333 38.4199 14.3733 38.4199 14.4267V41.5733C38.4199 41.6267 38.3799 41.6667 38.3266 41.6667H19.0133C18.9599 41.6667 18.9199 41.6267 18.9199 41.5733V35.4667Z" fill="#027BCE"/>
<path d="M23.6797 39.7733H35.573C36.1264 39.7733 36.573 39.3267 36.573 38.7733V27.52C36.573 26.9667 36.1264 26.52 35.573 26.52H23.6797C23.1264 26.52 22.6797 26.9667 22.6797 27.52V38.78C22.6797 39.3267 23.133 39.7733 23.6797 39.7733ZM24.6797 28.52H34.573V37.78H24.6797V28.52ZM23.6797 22.22C24.233 22.22 24.6797 21.7733 24.6797 21.22V16.94C24.6797 16.3867 24.233 15.94 23.6797 15.94C23.1264 15.94 22.6797 16.3867 22.6797 16.94V21.22C22.6797 21.7733 23.133 22.22 23.6797 22.22ZM27.6464 22.22C28.1997 22.22 28.6464 21.7733 28.6464 21.22V16.94C28.6464 16.3867 28.1997 15.94 27.6464 15.94C27.093 15.94 26.6464 16.3867 26.6464 16.94V21.22C26.6464 21.7733 27.093 22.22 27.6464 22.22ZM31.613 22.22C32.1664 22.22 32.613 21.7733 32.613 21.22V16.94C32.613 16.3867 32.1664 15.94 31.613 15.94C31.0597 15.94 30.613 16.3867 30.613 16.94V21.22C30.613 21.7733 31.0597 22.22 31.613 22.22ZM35.5797 22.22C36.133 22.22 36.5797 21.7733 36.5797 21.22V16.94C36.5797 16.3867 36.133 15.94 35.5797 15.94C35.0264 15.94 34.5797 16.3867 34.5797 16.94V21.22C34.5797 21.7733 35.0264 22.22 35.5797 22.22Z" fill="#027BCE"/>
</svg>
