<svg width="48" height="48" viewBox="0 0 48 48" fill="none" xmlns="http://www.w3.org/2000/svg">
<path d="M39 48H9C4.029 48 0 43.971 0 39V9C0 4.029 4.029 0 9 0H39C43.971 0 48 4.029 48 9V39C48 43.971 43.971 48 39 48Z" fill="url(#paint0_linear_72_15)"/>
<path d="M30.2783 13.2761H29.384V12.3825C29.384 12.1455 29.2897 11.9183 29.122 11.7507C28.9543 11.5831 28.7268 11.489 28.4897 11.489C28.2525 11.489 28.025 11.5831 27.8573 11.7507C27.6896 11.9183 27.5954 12.1455 27.5954 12.3825V13.2761H20.441V12.3825C20.441 12.1455 20.3468 11.9183 20.1791 11.7507C20.0113 11.5831 19.7839 11.489 19.5467 11.489C19.3095 11.489 19.082 11.5831 18.9143 11.7507C18.7466 11.9183 18.6524 12.1455 18.6524 12.3825V13.2761H17.7581C16.5722 13.2761 15.4349 13.7468 14.5963 14.5847C13.7577 15.4226 13.2866 16.5591 13.2866 17.744V30.2542C13.2866 31.4391 13.7577 32.5756 14.5963 33.4135C15.4349 34.2514 16.5722 34.7221 17.7581 34.7221H30.2783C31.4642 34.7221 32.6015 34.2514 33.4401 33.4135C34.2786 32.5756 34.7497 31.4391 34.7497 30.2542V17.744C34.7497 16.5591 34.2786 15.4226 33.4401 14.5847C32.6015 13.7468 31.4642 13.2761 30.2783 13.2761ZM17.7581 15.0633H18.6524V15.9569C18.6524 16.1939 18.7466 16.4211 18.9143 16.5887C19.082 16.7563 19.3095 16.8504 19.5467 16.8504C19.7839 16.8504 20.0113 16.7563 20.1791 16.5887C20.3468 16.4211 20.441 16.1939 20.441 15.9569V15.0633H27.5954V15.9569C27.5954 16.1939 27.6896 16.4211 27.8573 16.5887C28.025 16.7563 28.2525 16.8504 28.4897 16.8504C28.7268 16.8504 28.9543 16.7563 29.122 16.5887C29.2897 16.4211 29.384 16.1939 29.384 15.9569V15.0633H30.2783C30.9898 15.0633 31.6722 15.3457 32.1753 15.8485C32.6785 16.3512 32.9611 17.0331 32.9611 17.744V18.6376H15.0752V17.744C15.0752 17.0331 15.3579 16.3512 15.861 15.8485C16.3642 15.3457 17.0466 15.0633 17.7581 15.0633ZM30.2783 32.9349H17.7581C17.0466 32.9349 16.3642 32.6525 15.861 32.1498C15.3579 31.647 15.0752 30.9652 15.0752 30.2542V20.4248H32.9611V30.2542C32.9611 30.9652 32.6785 31.647 32.1753 32.1498C31.6722 32.6525 30.9898 32.9349 30.2783 32.9349Z" fill="white"/>
<path d="M28.4895 23.9991H26.701C25.9894 23.9991 25.307 24.2815 24.8039 24.7843C24.3007 25.287 24.0181 25.9689 24.0181 26.6798V28.467C24.0181 29.178 24.3007 29.8598 24.8039 30.3626C25.307 30.8653 25.9894 31.1477 26.701 31.1477H28.4895C29.2011 31.1477 29.8835 30.8653 30.3866 30.3626C30.8898 29.8598 31.1724 29.178 31.1724 28.467V26.6798C31.1724 25.9689 30.8898 25.287 30.3866 24.7843C29.8835 24.2815 29.2011 23.9991 28.4895 23.9991ZM29.3838 28.467C29.3838 28.704 29.2896 28.9313 29.1219 29.0989C28.9542 29.2664 28.7267 29.3606 28.4895 29.3606H26.701C26.4638 29.3606 26.2363 29.2664 26.0686 29.0989C25.9009 28.9313 25.8067 28.704 25.8067 28.467V26.6798C25.8067 26.4428 25.9009 26.2156 26.0686 26.048C26.2363 25.8804 26.4638 25.7862 26.701 25.7862H28.4895C28.7267 25.7862 28.9542 25.8804 29.1219 26.048C29.2896 26.2156 29.3838 26.4428 29.3838 26.6798V28.467Z" fill="white"/>
<defs>
<linearGradient id="paint0_linear_72_15" x1="0" y1="0" x2="0" y2="48" gradientUnits="userSpaceOnUse">
<stop stop-color="#B3ED2C"/>
<stop offset="1" stop-color="#71A100"/>
</linearGradient>
</defs>
</svg>
