<svg width="48" height="48" viewBox="0 0 48 48" fill="none" xmlns="http://www.w3.org/2000/svg">
<path d="M38.9985 48H8.99965C4.02884 48 0 43.971 0 39V9C0 4.029 4.02884 0 8.99965 0H38.9985C43.9693 0 47.9981 4.029 47.9981 9V39C47.9981 43.971 43.9693 48 38.9985 48Z" fill="url(#paint0_linear_72_166)"/>
<path d="M32.9052 17.2784L27.6309 11.9906C27.553 11.9125 27.4605 11.8505 27.3585 11.8082C27.2566 11.766 27.1474 11.7442 27.037 11.7442H16.9024C16.0354 11.7442 15.3301 12.449 15.3301 13.3153V34.6828C15.3301 35.5491 16.0354 36.2539 16.9024 36.2539H31.5775C32.4445 36.2539 33.1498 35.5491 33.1498 34.6828V17.8699C33.1498 17.6482 33.0619 17.4355 32.9052 17.2784ZM27.8563 14.6099L30.2915 17.0337H27.8563V14.6099ZM17.0072 34.578V13.4201H26.1791V17.1368C26.1791 18.0031 26.9038 18.7096 27.7708 18.7096H31.4726V34.578H17.0072Z" fill="white"/>
<path d="M23.4012 28.2935H25.0784V32.6926H23.4012V28.2935ZM19.418 26.1986H21.0951V32.6926H19.418V26.1986ZM27.3844 24.6275H29.0616V32.6926H27.3844V24.6275ZM26.4012 21.6776L27.3867 20.5315L28.6588 21.6236L27.6732 22.7698L26.4012 21.6776ZM23.9985 24.4715L20.4797 23.0258L19.8419 24.5757L23.9209 26.2516C24.2393 26.3824 24.6512 26.284 24.8758 26.0227L26.8825 23.6889L25.6105 22.5967L23.9985 24.4715Z" fill="white"/>
<defs>
<linearGradient id="paint0_linear_72_166" x1="0" y1="0" x2="0" y2="48" gradientUnits="userSpaceOnUse">
<stop stop-color="#B3ED2C"/>
<stop offset="1" stop-color="#71A100"/>
</linearGradient>
</defs>
</svg>
