<svg width="56" height="57" viewBox="0 0 56 57" fill="none" xmlns="http://www.w3.org/2000/svg">
<rect x="1" y="1.41998" width="54" height="54" rx="19" fill="white"/>
<rect x="1" y="1.41998" width="54" height="54" rx="19" stroke="#027BCE" stroke-width="2"/>
<path fill-rule="evenodd" clip-rule="evenodd" d="M32.2857 37.8486H34.8571C35.5394 37.8486 36.1934 37.5777 36.676 37.0951C37.1577 36.6134 37.4286 35.9594 37.4286 35.2771C37.4286 34.084 37.4286 32.7057 37.4286 32.7057C37.4286 32.2326 37.0446 31.8486 36.5714 31.8486C36.0991 31.8486 35.7143 32.2326 35.7143 32.7057V35.2771C35.7143 35.5043 35.6243 35.7228 35.464 35.8831C35.3029 36.0443 35.0851 36.1343 34.8571 36.1343C33.664 36.1343 32.2857 36.1343 32.2857 36.1343C31.8134 36.1343 31.4286 36.5183 31.4286 36.9914C31.4286 37.4646 31.8134 37.8486 32.2857 37.8486ZM23.7143 36.1343H21.1429C20.9157 36.1343 20.698 36.0443 20.5369 35.8831C20.3766 35.7228 20.2857 35.5043 20.2857 35.2771C20.2857 34.084 20.2857 32.7057 20.2857 32.7057C20.2857 32.2326 19.9017 31.8486 19.4286 31.8486C18.9563 31.8486 18.5714 32.2326 18.5714 32.7057V35.2771C18.5714 35.9594 18.8431 36.6134 19.3249 37.0951C19.8074 37.5777 20.4614 37.8486 21.1429 37.8486C22.3369 37.8486 23.7143 37.8486 23.7143 37.8486C24.1874 37.8486 24.5714 37.4646 24.5714 36.9914C24.5714 36.5183 24.1874 36.1343 23.7143 36.1343ZM40 27.5628C40 26.6157 39.2329 25.8486 38.2857 25.8486C34.7423 25.8486 21.2577 25.8486 17.7143 25.8486C16.768 25.8486 16 26.6157 16 27.5628C16 28.0866 16 28.7534 16 29.2771C16 30.2243 16.768 30.9914 17.7143 30.9914C21.2577 30.9914 34.7423 30.9914 38.2857 30.9914C39.2329 30.9914 40 30.2243 40 29.2771V27.5628ZM38.2857 27.5628H17.7143V29.2771H38.2857V27.5628ZM23.7143 18.9914H21.1429C20.4614 18.9914 19.8074 19.2623 19.3249 19.7448C18.8431 20.2266 18.5714 20.8806 18.5714 21.5628C18.5714 22.756 18.5714 24.1343 18.5714 24.1343C18.5714 24.6074 18.9563 24.9914 19.4286 24.9914C19.9017 24.9914 20.2857 24.6074 20.2857 24.1343V21.5628C20.2857 21.3357 20.3766 21.1171 20.5369 20.9568C20.698 20.7957 20.9157 20.7057 21.1429 20.7057C22.3369 20.7057 23.7143 20.7057 23.7143 20.7057C24.1874 20.7057 24.5714 20.3217 24.5714 19.8486C24.5714 19.3754 24.1874 18.9914 23.7143 18.9914ZM32.2857 20.7057H34.8571C35.0851 20.7057 35.3029 20.7957 35.464 20.9568C35.6243 21.1171 35.7143 21.3357 35.7143 21.5628C35.7143 22.756 35.7143 24.1343 35.7143 24.1343C35.7143 24.6074 36.0991 24.9914 36.5714 24.9914C37.0446 24.9914 37.4286 24.6074 37.4286 24.1343V21.5628C37.4286 20.8806 37.1577 20.2266 36.676 19.7448C36.1934 19.2623 35.5394 18.9914 34.8571 18.9914C33.664 18.9914 32.2857 18.9914 32.2857 18.9914C31.8134 18.9914 31.4286 19.3754 31.4286 19.8486C31.4286 20.3217 31.8134 20.7057 32.2857 20.7057Z" fill="#027BCE"/>
</svg>
