<svg width="48" height="48" viewBox="0 0 48 48" fill="none" xmlns="http://www.w3.org/2000/svg">
<path d="M38.9985 48H8.99965C4.02884 48 0 43.971 0 39V9C0 4.029 4.02884 0 8.99965 0H38.9985C43.9693 0 47.9981 4.029 47.9981 9V39C47.9981 43.971 43.9693 48 38.9985 48Z" fill="url(#paint0_linear_72_184)"/>
<g clip-path="url(#clip0_72_184)">
<path fill-rule="evenodd" clip-rule="evenodd" d="M28.6413 33.4652H31.2693C31.9666 33.4652 32.635 33.1865 33.1282 32.69C33.6205 32.1943 33.8974 31.5213 33.8974 30.8193C33.8974 29.5916 33.8974 28.1733 33.8974 28.1733C33.8974 27.6865 33.5049 27.2914 33.0213 27.2914C32.5387 27.2914 32.1453 27.6865 32.1453 28.1733V30.8193C32.1453 31.053 32.0534 31.2779 31.8895 31.4428C31.7248 31.6086 31.5023 31.7013 31.2693 31.7013C30.0499 31.7013 28.6413 31.7013 28.6413 31.7013C28.1586 31.7013 27.7653 32.0964 27.7653 32.5832C27.7653 33.0701 28.1586 33.4652 28.6413 33.4652ZM19.8812 31.7013H17.2531C17.021 31.7013 16.7985 31.6086 16.6338 31.4428C16.47 31.2779 16.3771 31.053 16.3771 30.8193C16.3771 29.5916 16.3771 28.1733 16.3771 28.1733C16.3771 27.6865 15.9847 27.2914 15.5011 27.2914C15.0184 27.2914 14.6251 27.6865 14.6251 28.1733V30.8193C14.6251 31.5213 14.9028 32.1943 15.3951 32.69C15.8883 33.1865 16.5567 33.4652 17.2531 33.4652C18.4734 33.4652 19.8812 33.4652 19.8812 33.4652C20.3647 33.4652 20.7572 33.0701 20.7572 32.5832C20.7572 32.0964 20.3647 31.7013 19.8812 31.7013ZM36.5254 22.8815C36.5254 21.9069 35.7414 21.1175 34.7734 21.1175C31.1519 21.1175 17.3705 21.1175 13.7491 21.1175C12.782 21.1175 11.9971 21.9069 11.9971 22.8815C11.9971 23.4204 11.9971 24.1065 11.9971 24.6454C11.9971 25.62 12.782 26.4094 13.7491 26.4094C17.3705 26.4094 31.1519 26.4094 34.7734 26.4094C35.7414 26.4094 36.5254 25.62 36.5254 24.6454V22.8815ZM34.7734 22.8815H13.7491V24.6454H34.7734V22.8815ZM19.8812 14.0617H17.2531C16.5567 14.0617 15.8883 14.3404 15.3951 14.837C14.9028 15.3326 14.6251 16.0056 14.6251 16.7076C14.6251 17.9354 14.6251 19.3536 14.6251 19.3536C14.6251 19.8404 15.0184 20.2355 15.5011 20.2355C15.9847 20.2355 16.3771 19.8404 16.3771 19.3536V16.7076C16.3771 16.4739 16.47 16.249 16.6338 16.0841C16.7985 15.9183 17.021 15.8257 17.2531 15.8257C18.4734 15.8257 19.8812 15.8257 19.8812 15.8257C20.3647 15.8257 20.7572 15.4305 20.7572 14.9437C20.7572 14.4568 20.3647 14.0617 19.8812 14.0617ZM28.6413 15.8257H31.2693C31.5023 15.8257 31.7248 15.9183 31.8895 16.0841C32.0534 16.249 32.1453 16.4739 32.1453 16.7076C32.1453 17.9354 32.1453 19.3536 32.1453 19.3536C32.1453 19.8404 32.5387 20.2355 33.0213 20.2355C33.5049 20.2355 33.8974 19.8404 33.8974 19.3536V16.7076C33.8974 16.0056 33.6205 15.3326 33.1282 14.837C32.635 14.3404 31.9666 14.0617 31.2693 14.0617C30.0499 14.0617 28.6413 14.0617 28.6413 14.0617C28.1586 14.0617 27.7653 14.4568 27.7653 14.9437C27.7653 15.4305 28.1586 15.8257 28.6413 15.8257Z" fill="white"/>
</g>
<defs>
<linearGradient id="paint0_linear_72_184" x1="0" y1="0" x2="0" y2="48" gradientUnits="userSpaceOnUse">
<stop stop-color="#B3ED2C"/>
<stop offset="1" stop-color="#71A100"/>
</linearGradient>
<clipPath id="clip0_72_184">
<rect width="28.6164" height="28.5946" fill="white" transform="translate(9.70898 9.70172)"/>
</clipPath>
</defs>
</svg>
